<?xml version="1.0" encoding="utf-8"?>
<!-- Generator: Adobe Illustrator 18.0.0, SVG Export Plug-In . SVG Version: 6.00 Build 0)  -->
<!DOCTYPE svg PUBLIC "-//W3C//DTD SVG 1.1//EN" "http://www.w3.org/Graphics/SVG/1.1/DTD/svg11.dtd">
<svg version="1.1"
	 id="svg3131" sodipodi:docname="pimiento.svg" inkscape:version="0.48.5 r10040" xmlns:inkscape="http://www.inkscape.org/namespaces/inkscape" xmlns:sodipodi="http://sodipodi.sourceforge.net/DTD/sodipodi-0.dtd" xmlns:dc="http://purl.org/dc/elements/1.1/" xmlns:rdf="http://www.w3.org/1999/02/22-rdf-syntax-ns#" xmlns:svg="http://www.w3.org/2000/svg" xmlns:cc="http://creativecommons.org/ns#"
	 xmlns="http://www.w3.org/2000/svg" xmlns:xlink="http://www.w3.org/1999/xlink" x="0px" y="0px" viewBox="0 0 152 152"
	 enable-background="new 0 0 152 152" xml:space="preserve">
<sodipodi:namedview  inkscape:current-layer="svg3131" inkscape:window-maximized="0" inkscape:window-y="0" inkscape:window-x="0" inkscape:window-height="480" inkscape:window-width="640" inkscape:pageshadow="2" inkscape:pageopacity="0" borderopacity="1" bordercolor="#666666" objecttolerance="10" gridtolerance="10" id="namedview3233" inkscape:cx="95" inkscape:cy="95" inkscape:zoom="1.2421053" pagecolor="#ffffff" showgrid="false" guidetolerance="10">
	</sodipodi:namedview>
<path id="path3133" opacity="0" fill="#969696" d="M0,0h152v152H0V0z"/>
<path id="path3135" fill="#71910D" d="M88.2,16.1c4-3.8,9.7-6.6,15.2-4.4c0,0,0.1,0,0.1,0c0.6,0.3,1.9,0.9,2.6,1.2
	c-0.4,2.2-0.9,4.4-1.6,6.6c-2.8,0-5.6,0.1-8.2,0.8C95,21.1,94,22.1,92.9,23c0.3-1.1,0.6-2.2,0.9-3.3c-3,1.6-5.3,4.1-7.1,7.1
	c-1.3-3.6,0.7-6.8,1.3-10.3L88.2,16.1z"/>
<path id="path3137" fill="#8A995D" d="M103.3,11.6c0,0,0.1,0,0.1,0C103.4,11.7,103.3,11.6,103.3,11.6z"/>
<path id="path3139" fill="#23370A" d="M106,12.9l0-0.2c0.2,0.3,0.5,0.9,0.7,1.2c0.3,3,0.8,6.8-1.8,9c-1.5,1.5-3.8,1.7-5.8,1.1
	c-1.1-1.2-2-2.5-3-3.7c2.7-0.8,5.5-0.8,8.2-0.8C105.1,17.3,105.6,15.1,106,12.9z"/>
<path id="path3141" fill="#9BC32F" d="M93,14.7c2.9-3,7.6-2,11.3-2c0.1,0.9,0.3,2.6,0.4,3.5C100.9,19,96.6,16.6,93,14.7z"/>
<path id="path3143" fill="#8A995D" d="M106.7,13.9c3.7,4.3-2.2,13.6-7.5,10.2c2,0.6,4.2,0.4,5.8-1.1C107.6,20.7,107,16.9,106.7,13.9
	z"/>
<path id="path3145" fill="#8A995D" d="M87.8,16.7c0.1-0.2,0.3-0.5,0.4-0.6l0,0.4L87.8,16.7z"/>
<path id="path3147" fill="#627A0C" d="M80.7,24.5c1.9-3,3.9-6,7-7.8l0.4-0.2c-0.7,3.4-2.7,6.6-1.3,10.3c-0.6,2-1.2,3.9-1.8,5.8
	c0.5,0,1.5-0.1,2.1-0.1c1.8-3.1,2.7-6.7,5.5-9.1c-1.3,2.2-2.4,4.6-3.4,7c-0.6,1.4-1.8,2.3-3.1,3c-2.2,0.1-4.4,0.2-6.6,0.4
	c2.2-1.4,2.9-4,3.6-6.4c-1.5,0.3-2.9,0.6-4.3,0.9c0.6-1.2,1.3-2.5,2-3.7C80.7,24.6,80.7,24.6,80.7,24.5z"/>
<path id="path3149" fill="#464C15" d="M86.8,26.8c1.7-2.9,4-5.5,7.1-7.1c-0.3,1.1-0.6,2.2-0.9,3.3l-0.4,0.4c-2.8,2.4-3.8,6-5.5,9.1
	c-0.5,0-1.5,0.1-2.1,0.1C85.6,30.6,86.2,28.7,86.8,26.8z"/>
<path id="path3151" fill="#8A995D" d="M80.7,24.7c0,0,0.1-0.1,0.1-0.1C80.7,24.6,80.7,24.6,80.7,24.7z"/>
<path id="path3153" fill="#C03C34" d="M40.5,25.8c4.1-1.8,8.6-0.4,12.4,1.4c-4.5,3.8-10.3,6.1-13.8,11c-1,0.3-2.1,0.5-3.2,0.8
	c-1.3-2.2-2.3-4.6-2.9-7.2C35.1,29.4,37.3,26.9,40.5,25.8z"/>
<path id="path3155" fill="#CD575E" d="M55.5,27.2c0.3-1.4,1.3-1.7,2.9-0.9l0,0.6C57.7,26.9,56.2,27.1,55.5,27.2z"/>
<path id="path3157" fill="#C03C34" d="M58.4,26.2l0.7,0l0,0.6l-0.7,0.1L58.4,26.2z"/>
<path id="path3159" fill="#BD332B" d="M59.1,26.2l0.8,0l0,0.6l-0.8,0L59.1,26.2z"/>
<path id="path3161" fill="#BC2E27" d="M59.9,26.2c0.6,0,1.7,0,2.2,0l0,0.6c-0.5,0-1.7,0-2.2,0L59.9,26.2z"/>
<path id="path3163" fill="#BD332B" d="M62.1,26.2l0.8,0l0,0.6l-0.8,0L62.1,26.2z"/>
<path id="path3165" fill="#C03C34" d="M62.9,26.2l0.7,0l0,0.6l-0.7,0L62.9,26.2z"/>
<path id="path3167" fill="#CD575E" d="M63.6,26.2c1.6-0.8,2.6-0.5,3,1c-0.8-0.1-2.3-0.3-3-0.4L63.6,26.2z"/>
<path id="path3169" fill="#DA918F" d="M35.3,33.9c2.3-4.7,7.8-6.1,12.6-6.6c-0.1,0.5-0.3,1.5-0.4,2c-3.9,2.1-7.1,5.1-10.8,7.7
	C36.3,36.2,35.6,34.7,35.3,33.9z"/>
<path id="path3171" fill="#B80101" d="M52.9,27.2c0.6,0,1.9-0.1,2.6-0.1c0.7-0.1,2.2-0.3,3-0.4l0.7-0.1l0.8,0c0.5,0,1.7,0,2.2,0
	l0.8,0l0.7,0c0.8,0.1,2.3,0.3,3,0.4c2,0.1,4,0.7,5.8,1.5c0,0,0.1,0,0.1,0.1l1.7,0.9c0,0,0.1,0.1,0.1,0.1c0.7,0.5,2.2,1.4,2.9,1.9
	l0,0.3c0,0.6-0.1,1.7-0.1,2.2c-2.3-1-4.6-1.7-7.1-1.7c-4.5-0.2-8.5-3.2-13.1-2.7c-4.2,0.1-8.5,3.1-9.1,7.4
	c2.1,6.4,12.4,7.8,16.1,2.2c0.9-1,2-2.6,3.6-1.8c1.9,1.6,3.5,3.4,5.1,5.2c-2.4,3.6-2.7,8.1-3.8,12.2c-2.1,8.2-3.1,16.7-4.9,25
	c-1.2,6.4-3.4,12.9-2.1,19.4c-3.7,0.7-7.8,0.9-11.1-1c-1.6-2.7-2-6-3.5-8.8c-1.2-8.4-0.9-17-0.6-25.5c0.5-6.1,2.8-13.4-2-18.4
	c-3.1-1-4.1,2.7-4.8,5c-1.6,8.7-1.4,17.7-0.2,26.4c0.1,4.5-1.8,9-0.3,13.5c-0.2,3.8-0.4,7.6-0.4,11.4c-0.7-1.4-1.4-2.8-2.1-4.3
	c-1.4-11.1-1-22.4-2.3-33.5c-0.4,0.2-1.2,0.6-1.6,0.8c-0.7,2.5-1.4,5-2.2,7.5c-0.6-1.4-1.1-2.8-1.1-4.3c-0.1-9.6-0.7-19.7,3.5-28.7
	c1.4,0.5,3,0.7,4.4,1.2c0.6-0.8,1.1-1.5,1.7-2.3C42.6,33.3,48.4,31.1,52.9,27.2z"/>
<path id="path3173" fill="#86A31A" d="M78.7,28.4c1.4-0.3,2.9-0.6,4.3-0.9c-0.8,2.4-1.4,4.9-3.6,6.4c-0.5-0.5-1.6-1.4-2.1-1.9l0-0.3
	c0.3-1,0.6-2.1,1-3.1L78.7,28.4z"/>
<path id="path3175" fill="#CD575E" d="M72.4,28.7c0,0,0.1,0,0.1,0.1C72.5,28.7,72.4,28.7,72.4,28.7z"/>
<path id="path3177" fill="#CD575E" d="M74.2,29.7c0,0,0.1,0.1,0.1,0.1C74.3,29.7,74.3,29.7,74.2,29.7z"/>
<path id="path3179" fill="#BF0A08" d="M86,33.4c1.3-0.7,2.5-1.6,3.1-3l-0.7,1.9c4-0.2,8.2-0.5,11.9,1.3c0,0,0.1,0,0.1,0.1l1.8,0.9
	c0,0,0.1,0,0.1,0.1l1.2,0.8c2.2,1.4,4.1,3.1,5.6,5.1c-1,0-2,0-3,0c-0.9,1.2-1.8,2.5-2.8,3.7c0.2-1.2,0.6-3.5,0.8-4.7
	c-1,0.4-2,0.9-3,1.4l1.5,2.2c-0.1,0.6-0.4,1.9-0.5,2.6c-7.1-0.1-14.2,0.9-21.3,0.5c-0.1-1.4-0.2-2.7-0.3-4.1
	c0.9-2.9,3.9-4.4,6.1-6.1C86.7,35.3,86.2,34,86,33.4z"/>
<path id="path3181" fill="#BC2E27" d="M33,31.9c0.7,2.5,1.6,4.9,2.9,7.2c1-0.3,2.1-0.5,3.2-0.8c-0.6,0.8-1.1,1.5-1.7,2.3
	C36,40,34.5,39.8,33,39.3c-4.2,9-3.7,19.1-3.5,28.7c0,1.5,0.5,2.9,1.1,4.3c0.9-2.5,1.6-5,2.2-7.5c0.4-0.2,1.2-0.6,1.6-0.8
	c1.3,11.1,0.9,22.4,2.3,33.5c0,9.3,3.7,18,7.4,26.3c4.4,6.6,13.3,6.4,20.3,8.2c-5.2,2.7-11.3,1.4-16.9,1.7
	c-4.1-2.8-7.1-6.8-10.2-10.7c0.7-2.2,1.5-4.6,0.7-6.9c-1.8-7-2.9-14.1-3.3-21.3c-0.1-2.6-0.6-5.2-1.6-7.6c-2.3,3.1-1.4,7.1-1.6,10.6
	c-0.3,6.3,1.5,12.3,1.9,18.6c-2.6-5.2-4.2-11-4.1-16.8c0.2-1,0-1.9-0.8-2.8c-0.6-1.7-0.5-3.5-0.3-5.2c0.2-1,0-2-0.6-2.8
	c-1-2.5-0.4-5.3-0.5-8C26.6,64.6,25,46.9,33,31.9z"/>
<path id="path3183" fill="#9F0101" d="M77.3,31.9c0.5,0.5,1.6,1.4,2.1,1.9c2.2-0.2,4.4-0.3,6.6-0.4c0.2,0.6,0.7,1.9,1,2.5
	c-2.3,1.7-5.2,3.2-6.1,6.1c-0.2,1.3-0.4,2.7-0.5,4c-0.7-1.3-1.2-2.8-1.8-4.1c-1.2,1.2-2.8,2.4-3.3,4.2c-4.1,14.9-4.6,30.5-6.7,45.7
	c-0.3,2.8,0.7,7.3,4.5,6.3c2.6-1.4,3.4-4.6,3.7-7.3c0.3-14,5.3-27.2,7-41c0.3-1.3-1.1-2.1-1.7-3c1.7,0.2,3.4,0.4,5.1,0.6
	c-0.4,10.7-3.1,21.2-4.6,31.8c-0.8,6.8,0.7,14.1-2.2,20.6c-0.8-0.5-1.7-0.9-2.5-1.3c-1.7,1.8-2.7,5.2-5.5,5.5
	c-2.2-1.3-4-3.2-5.9-4.8c-0.7,0.3-1.9,0.9-2.6,1.2c-0.5-0.2-1.4-0.7-1.9-1c-1.3-6.6,0.9-13,2.1-19.4c1.8-8.3,2.8-16.8,4.9-25
	c1.1-4.1,1.4-8.6,3.8-12.2c1.5-0.4,3.6,0,4.7-1.4c1.1-2.3,0-4.8-0.1-7.1C77.2,33.6,77.2,32.5,77.3,31.9z"/>
<path id="path3185" fill="#CE4142" d="M47.9,37.1c0.5-4.3,4.9-7.3,9.1-7.4c4.6-0.4,8.6,2.5,13.1,2.7c2.5,0.1,4.9,0.8,7.1,1.7
	c0.1,2.4,1.3,4.9,0.1,7.1c-1.1,1.4-3.1,1-4.7,1.4c-1.6-1.8-3.2-3.7-5.1-5.2c-1.6-0.8-2.6,0.9-3.6,1.8C60.2,44.8,49.9,43.5,47.9,37.1
	z"/>
<path id="path3187" fill="#CD575E" d="M100.4,33.6c0,0,0.1,0,0.1,0.1C100.5,33.7,100.4,33.6,100.4,33.6z"/>
<path id="path3189" fill="#E09BA0" d="M70.5,34.5c3.5-0.8,6.5,2.4,5.7,5.9C73,41.3,68.6,37.8,70.5,34.5z"/>
<path id="path3191" fill="#CD575E" d="M102.3,34.6c0,0,0.1,0,0.1,0.1C102.4,34.6,102.4,34.6,102.3,34.6z"/>
<path id="path3193" fill="#BD332B" d="M103.7,35.4c2.7,0.9,5.5-0.6,8.1,0.2c3.2,0.7,5.9,3.1,7.2,6.1c2.1,5.9,2,12.4,1.2,18.5
	c-1.5,12.5-4.2,24.9-6.7,37.2c0,0,0,0.1,0,0.2c-1,4.3-2.1,8.5-3.1,12.8c0,0,0,0.1,0,0.2c-1,3.6-1.9,7.2-3,10.8c0,0,0,0.1,0,0.1
	c-1.6,4.8-3.9,9.4-7.5,13l-0.3,0c-7.8-1.1-15.9,1.5-23.4-1.7c0-0.5,0-1.4,0-1.9c3.6-4.4,9.8-4.2,14.6-6.3c3.9-1.7,8.9-2.5,11-6.7
	c2.3-3.8,1.4-8.4,2.3-12.6c0.7-4.2,6.6-4.6,7.1-9c1.7-7.8,4.5-15.5,4.9-23.6c1.5-8.5,3.3-17.1,2.5-25.7c0.1-3.2-3.8-2.9-6-3.6
	c1.5,4.9,2.2,9.9,1.9,15c-0.3-6.2-1.7-12.4-5-17.7C107.8,38.5,105.9,36.8,103.7,35.4z"/>
<path id="path3195" fill="#9E0301" d="M101.4,40.9c1-0.5,2-0.9,3-1.4c-0.2,1.2-0.6,3.5-0.8,4.7c0.9-1.2,1.9-2.5,2.8-3.7c1,0,2,0,3,0
	c3.4,5.3,4.7,11.5,5,17.7c0,1.1,0,2.2,0,3.2l-1.3,1.2c-0.9-5.3-1.2-11.1-5.1-15.2c-2.9,5.7-2.3,12.3-2.9,18.5
	c-0.7,7.6-0.8,15.2-2.2,22.7c-0.4,1.8,0.6,3.5,1.1,5.1c-0.5,0.8-1,1.6-1.4,2.5c-0.4,0.8-0.8,1.5-1.1,2.2c-2.1-2.2-4.5-4.2-6-6.9
	c-1.5-3.4-0.1-7.2,0.4-10.7c2.4-11.7,2-24.1,6.6-35.2c0.1-0.6,0.4-1.9,0.5-2.6L101.4,40.9z"/>
<path id="path3197" fill="#870101" d="M75.2,46.1c0.5-1.8,2-2.9,3.3-4.2c0.6,1.4,1.2,2.8,1.8,4.1c0.4,0.2,1.2,0.6,1.6,0.8
	c0.6,0.9,2,1.7,1.7,3c-1.7,13.8-6.7,27-7,41c-0.3,2.7-1.1,5.9-3.7,7.3c-3.7,1-4.8-3.5-4.5-6.3C70.7,76.6,71.1,61,75.2,46.1z"/>
<path id="path3199" fill="#B20101" d="M80.8,42c0.1,1.4,0.2,2.7,0.3,4.1c7.1,0.4,14.2-0.6,21.3-0.5c-4.6,11.2-4.2,23.5-6.6,35.2
	c-0.5,3.5-1.9,7.3-0.4,10.7c1.5,2.7,3.9,4.7,6,6.9c-0.8,1-1.8,2.1-3.2,1.8c-6-0.3-12-2-18-0.5c2.9-6.5,1.4-13.7,2.2-20.6
	c1.5-10.6,4.2-21.1,4.6-31.8c-1.7-0.2-3.4-0.4-5.1-0.6c-0.4-0.2-1.2-0.6-1.6-0.8C80.5,44.7,80.6,43.4,80.8,42z"/>
<path id="path3201" fill="#820403" d="M112.5,43.3c2.1,0.7,6.1,0.4,6,3.6c0.8,8.7-1,17.2-2.5,25.7c-1,2.8-1.9,5.5-2.7,8.4
	c0-6.5,1.6-13,1-19.5c0-1.1,0-2.2,0-3.2C114.7,53.2,114,48.2,112.5,43.3z"/>
<path id="path3203" fill="#D46165" d="M39.7,50.6c0.7-2.2,1.7-6,4.8-5c4.8,5,2.5,12.3,2,18.4c-0.3,8.5-0.6,17.1,0.6,25.5
	c-0.4,4.5,3,10.1-0.8,13.8c-1.1,1.4-3,1.1-4.6,1.4c-1.1-4.7-0.6-9.7-2.5-14.2c-1.5-4.5,0.4-9,0.3-13.5
	C38.4,68.2,38.2,59.3,39.7,50.6z"/>
<path id="path3205" fill="#8E0904" d="M105,65.9c0.6-6.2,0-12.8,2.9-18.5c3.9,4.1,4.2,9.9,5.1,15.2c-0.2,5.8-1.9,11.4-3.4,17
	c-1.4,4.9-2.2,10.2-5.8,14.1c-0.5-1.7-1.4-3.3-1.1-5.1C104.2,81.2,104.3,73.5,105,65.9z"/>
<path id="path3207" fill="#9B1C16" d="M113,62.7l1.3-1.2c0.6,6.6-1.1,13-1,19.5c0.8-2.8,1.7-5.6,2.7-8.4c-0.3,8.1-3.2,15.8-4.9,23.6
	c-2.6,1.8-6.5,3.4-8.7,0c0.4-0.8,0.9-1.7,1.4-2.5c3.5-3.9,4.3-9.3,5.8-14.1C111.1,74.1,112.7,68.5,113,62.7z"/>
<path id="path3209" fill="#CD575E" d="M31.4,98c0.2-3.6-0.6-7.6,1.6-10.6c1,2.4,1.5,5,1.6,7.6c0.5,7.2,1.5,14.3,3.3,21.3
	c0.8,2.3,0,4.7-0.7,6.9c-1.5-2.1-3.3-4.1-3.9-6.6C32.9,110.3,31.1,104.3,31.4,98z"/>
<path id="path3211" fill="#CD575E" d="M27.6,88.9c0.6,0.9,0.9,1.8,0.6,2.8C26.6,91.3,26.4,90.3,27.6,88.9z"/>
<path id="path3213" fill="#B51710" d="M47.2,89.5c1.5,2.8,1.9,6.1,3.5,8.8c3.4,2,7.4,1.8,11.1,1c0.5,0.2,1.4,0.7,1.9,1
	c0.8,3.8,1.8,7.6,1.7,11.5c0.1,6.4,0.8,12.7,1.5,19.1c-0.8,0.4-1.6,0.9-2.4,1.3c-7-1.7-15.8-1.6-20.3-8.2
	c-3.7-8.3-7.4-17.1-7.4-26.3c0.7,1.4,1.4,2.8,2.1,4.3c0-3.8,0.2-7.6,0.4-11.4c1.9,4.5,1.4,9.5,2.5,14.2c1.6-0.3,3.5,0.1,4.6-1.4
	C50.2,99.6,46.8,94,47.2,89.5z"/>
<path id="path3215" fill="#B5150F" d="M101.3,98.5c0.4-0.8,0.8-1.5,1.1-2.2c2.2,3.4,6,1.8,8.7,0c-0.4,4.4-6.4,4.8-7.1,9
	c-0.8,4.2,0,8.8-2.3,12.6c-2.1,4.2-7.1,5-11,6.7c-4.9,2.1-11,1.9-14.6,6.3c0-1.4,0.1-2.8,0.2-4.3c0.1-1.8,0.1-3.6,0-5.4
	c0.8,0,2.2,0.1,3,0.1c1-3.8,2.3-9.4-1.9-11.7c0.5-1,0.9-2,1.3-3c0.6-2.2,1-4.5,1.3-6.8c6-1.5,12,0.2,18,0.5
	C99.5,100.6,100.5,99.5,101.3,98.5z"/>
<path id="path3217" fill="#CD575E" d="M28.5,97c0.7,0.8,1,1.7,0.8,2.8C27.6,99.4,27.4,98.4,28.5,97z"/>
<path id="path3219" fill="#CD575E" d="M113.5,97.6c0,0,0-0.1,0-0.2C113.5,97.5,113.5,97.6,113.5,97.6z"/>
<path id="path3221" fill="#9F0E0A" d="M72.2,103.9c2.8-0.3,3.7-3.7,5.5-5.5c0.8,0.5,1.7,0.9,2.5,1.3c-0.4,2.3-0.7,4.6-1.3,6.8
	c-4.6,1.8-4.8,7.1-5.9,11.2c-2.7-1.7-5.2-3.8-7.5-6c0.1-3.9-1-7.7-1.7-11.5c0.6-0.3,1.9-0.9,2.6-1.2
	C68.1,100.7,69.9,102.6,72.2,103.9z"/>
<path id="path3223" fill="#A41A12" d="M72.8,117.8c1.1-4.1,1.3-9.4,5.9-11.2c-0.4,1-0.9,2-1.3,3c-2.1,3.5-1.6,7.7-1.1,11.6
	c0.1,1.8,0.1,3.6,0,5.4c-3.4,0.7-6.5,2.5-9.5,4.2c-0.7-6.3-1.3-12.7-1.5-19.1C67.6,114,70.1,116.1,72.8,117.8z"/>
<path id="path3225" fill="#BA2C25" d="M77.5,109.6c4.2,2.3,2.9,7.9,1.9,11.7c-0.8,0-2.2-0.1-3-0.1C75.9,117.3,75.3,113.2,77.5,109.6
	z"/>
<path id="path3227" fill="#CD575E" d="M110.4,110.5c0,0,0-0.1,0-0.2C110.4,110.4,110.4,110.5,110.4,110.5z"/>
<path id="path3229" fill="#CD575E" d="M107.4,121.5c0,0,0-0.1,0-0.1C107.4,121.4,107.4,121.4,107.4,121.5z"/>
<path id="path3231" fill="#9C231E" d="M66.8,130.8c3-1.8,6.1-3.5,9.5-4.2c-0.1,1.4-0.2,2.8-0.2,4.3c0,0.5,0,1.4,0,1.9
	c7.5,3.2,15.7,0.6,23.4,1.7c-2.5,3.4-6.3,6-10.6,6.1c-6.3,0.4-12.8,0.1-19-1.1c-4.8,1.2-9.8,1-14.7,0c-3.4-0.3-5.8-3.2-7.8-5.6
	c5.6-0.4,11.7,1,16.9-1.7C65.2,131.7,66,131.3,66.8,130.8z"/>
</svg>
