<?xml version="1.0" encoding="UTF-8" standalone="no"?>
<svg
   xmlns:dc="http://purl.org/dc/elements/1.1/"
   xmlns:cc="http://creativecommons.org/ns#"
   xmlns:rdf="http://www.w3.org/1999/02/22-rdf-syntax-ns#"
   xmlns:svg="http://www.w3.org/2000/svg"
   xmlns="http://www.w3.org/2000/svg"
   xmlns:sodipodi="http://sodipodi.sourceforge.net/DTD/sodipodi-0.dtd"
   xmlns:inkscape="http://www.inkscape.org/namespaces/inkscape"
   width="152pt"
   height="152pt"
   viewBox="0 0 152 152"
   version="1.1"
   id="svg3131"
   inkscape:version="0.48.5 r10040"
   sodipodi:docname="pimiento.svg">
  <metadata
     id="metadata3237">
    <rdf:RDF>
      <cc:Work
         rdf:about="">
        <dc:format>image/svg+xml</dc:format>
        <dc:type
           rdf:resource="http://purl.org/dc/dcmitype/StillImage" />
        <dc:title></dc:title>
      </cc:Work>
    </rdf:RDF>
  </metadata>
  <defs
     id="defs3235" />
  <sodipodi:namedview
     pagecolor="#ffffff"
     bordercolor="#666666"
     borderopacity="1"
     objecttolerance="10"
     gridtolerance="10"
     guidetolerance="10"
     inkscape:pageopacity="0"
     inkscape:pageshadow="2"
     inkscape:window-width="640"
     inkscape:window-height="480"
     id="namedview3233"
     showgrid="false"
     inkscape:zoom="1.2421053"
     inkscape:cx="95"
     inkscape:cy="95"
     inkscape:window-x="0"
     inkscape:window-y="0"
     inkscape:window-maximized="0"
     inkscape:current-layer="svg3131" />
  <path
     fill="#969696"
     d=" M 0.00 0.00 L 152.00 0.00 L 152.00 152.00 L 0.00 152.00 L 0.00 0.00 Z"
     id="path3133" />
  <path
     fill="#71910d"
     d=" M 88.17 16.06 C 92.14 12.29 97.84 9.50 103.32 11.64 C 103.35 11.65 103.40 11.67 103.43 11.68 C 104.07 11.98 105.35 12.56 105.99 12.86 C 105.58 15.10 105.07 17.31 104.43 19.50 C 101.67 19.51 98.87 19.56 96.20 20.34 C 95.02 21.12 93.98 22.07 92.89 22.96 C 93.21 21.86 93.53 20.76 93.84 19.66 C 90.82 21.26 88.49 23.81 86.78 26.75 C 85.43 23.13 87.43 19.92 88.13 16.49 L 88.17 16.06 Z"
     id="path3135" />
  <path
     fill="#8a995d"
     d=" M 103.32 11.64 C 103.35 11.65 103.40 11.67 103.43 11.68 C 103.40 11.67 103.35 11.65 103.32 11.64 Z"
     id="path3137" />
  <path
     fill="#23370a"
     d=" M 105.99 12.86 L 106.03 12.65 C 106.20 12.96 106.54 13.58 106.71 13.89 C 107.02 16.92 107.55 20.67 104.95 22.91 C 103.40 24.43 101.20 24.65 99.20 24.06 C 98.14 22.87 97.18 21.59 96.20 20.34 C 98.87 19.56 101.67 19.51 104.43 19.50 C 105.07 17.31 105.58 15.10 105.99 12.86 Z"
     id="path3139" />
  <path
     fill="#9bc32f"
     d=" M 93.00 14.70 C 95.91 11.73 100.60 12.74 104.35 12.73 C 104.45 13.61 104.66 15.37 104.76 16.25 C 100.90 18.99 96.59 16.57 93.00 14.70 Z"
     id="path3141" />
  <path
     fill="#8a995d"
     d=" M 106.71 13.89 C 110.42 18.19 104.52 27.49 99.20 24.06 C 101.20 24.65 103.40 24.43 104.95 22.91 C 107.55 20.67 107.02 16.92 106.71 13.89 Z"
     id="path3143" />
  <path
     fill="#8a995d"
     d=" M 87.76 16.71 C 87.87 16.55 88.07 16.23 88.17 16.06 L 88.13 16.49 L 87.76 16.71 Z"
     id="path3145" />
  <path
     fill="#627a0c"
     d=" M 80.73 24.54 C 82.60 21.57 84.66 18.51 87.76 16.71 L 88.13 16.49 C 87.43 19.92 85.43 23.13 86.78 26.75 C 86.20 28.70 85.55 30.64 84.93 32.58 C 85.44 32.55 86.46 32.48 86.98 32.44 C 88.73 29.37 89.68 25.74 92.49 23.37 C 91.17 25.61 90.09 27.98 89.11 30.38 C 88.49 31.77 87.29 32.70 85.98 33.41 C 83.79 33.54 81.59 33.63 79.40 33.82 C 81.65 32.42 82.29 29.83 83.04 27.47 C 81.59 27.79 80.14 28.10 78.70 28.41 C 79.32 27.16 79.97 25.91 80.65 24.68 C 80.67 24.65 80.71 24.58 80.73 24.54 Z"
     id="path3147" />
  <path
     fill="#464c15"
     d=" M 86.78 26.75 C 88.49 23.81 90.82 21.26 93.84 19.66 C 93.53 20.76 93.21 21.86 92.89 22.96 L 92.49 23.37 C 89.68 25.74 88.73 29.37 86.98 32.44 C 86.46 32.48 85.44 32.55 84.93 32.58 C 85.55 30.64 86.20 28.70 86.78 26.75 Z"
     id="path3149" />
  <path
     fill="#8a995d"
     d=" M 80.65 24.68 C 80.67 24.65 80.71 24.58 80.73 24.54 C 80.71 24.58 80.67 24.65 80.65 24.68 Z"
     id="path3151" />
  <path
     fill="#c03c34"
     d=" M 40.51 25.80 C 44.57 24.05 49.12 25.36 52.87 27.24 C 48.40 31.07 42.56 33.29 39.11 38.25 C 38.06 38.52 37.01 38.79 35.96 39.06 C 34.67 36.82 33.70 34.42 33.04 31.91 C 35.09 29.41 37.35 26.87 40.51 25.80 Z"
     id="path3153" />
  <path
     fill="#cd575e"
     d=" M 55.45 27.16 C 55.79 25.78 56.77 25.46 58.38 26.22 L 58.42 26.79 C 57.67 26.88 56.19 27.07 55.45 27.16 Z"
     id="path3155" />
  <path
     fill="#c03c34"
     d=" M 58.38 26.22 L 59.11 26.18 L 59.13 26.74 L 58.42 26.79 L 58.38 26.22 Z"
     id="path3157" />
  <path
     fill="#bd332b"
     d=" M 59.11 26.18 L 59.87 26.16 L 59.88 26.75 L 59.13 26.74 L 59.11 26.18 Z"
     id="path3159" />
  <path
     fill="#bc2e27"
     d=" M 59.87 26.16 C 60.43 26.16 61.55 26.16 62.11 26.16 L 62.10 26.76 C 61.55 26.76 60.43 26.75 59.88 26.75 L 59.87 26.16 Z"
     id="path3161" />
  <path
     fill="#bd332b"
     d=" M 62.11 26.16 L 62.87 26.18 L 62.85 26.74 L 62.10 26.76 L 62.11 26.16 Z"
     id="path3163" />
  <path
     fill="#c03c34"
     d=" M 62.87 26.18 L 63.60 26.21 L 63.58 26.78 L 62.85 26.74 L 62.87 26.18 Z"
     id="path3165" />
  <path
     fill="#cd575e"
     d=" M 63.60 26.21 C 65.22 25.43 66.22 25.75 66.59 27.16 C 65.84 27.06 64.33 26.87 63.58 26.78 L 63.60 26.21 Z"
     id="path3167" />
  <path
     fill="#da918f"
     d=" M 35.29 33.92 C 37.59 29.22 43.07 27.78 47.86 27.27 C 47.75 27.77 47.54 28.78 47.44 29.28 C 43.53 31.38 40.30 34.43 36.68 36.94 C 36.33 36.19 35.64 34.68 35.29 33.92 Z"
     id="path3169" />
  <path
     fill="#b80101"
     d=" M 52.87 27.24 C 53.51 27.22 54.80 27.18 55.45 27.16 C 56.19 27.07 57.67 26.88 58.42 26.79 L 59.13 26.74 L 59.88 26.75 C 60.43 26.75 61.55 26.76 62.10 26.76 L 62.85 26.74 L 63.58 26.78 C 64.33 26.87 65.84 27.06 66.59 27.16 C 68.60 27.30 70.56 27.87 72.41 28.68 C 72.44 28.69 72.51 28.73 72.54 28.74 L 74.22 29.67 C 74.26 29.69 74.32 29.73 74.36 29.75 C 75.09 30.21 76.57 31.14 77.30 31.60 L 77.28 31.91 C 77.25 32.47 77.18 33.58 77.14 34.14 C 74.87 33.18 72.50 32.47 70.02 32.41 C 65.51 32.20 61.52 29.24 56.93 29.68 C 52.75 29.79 48.41 32.74 47.86 37.09 C 49.92 43.53 60.22 44.85 63.95 39.27 C 64.87 38.29 65.94 36.64 67.52 37.44 C 69.40 38.99 70.97 40.86 72.61 42.65 C 70.18 46.29 69.87 50.73 68.80 54.86 C 66.68 63.10 65.68 71.56 63.88 79.87 C 62.72 86.28 60.49 92.74 61.78 99.31 C 58.09 100.05 54.01 100.24 50.65 98.28 C 49.05 95.57 48.66 92.29 47.16 89.50 C 45.94 81.07 46.22 72.49 46.56 64.01 C 47.03 57.93 49.33 50.61 44.53 45.64 C 41.45 44.64 40.38 48.37 39.72 50.59 C 38.16 59.28 38.36 68.25 39.53 76.98 C 39.63 81.49 37.70 86.02 39.24 90.49 C 39.03 94.28 38.82 98.09 38.81 101.89 C 38.10 100.47 37.38 99.06 36.72 97.62 C 35.31 86.48 35.72 75.24 34.39 64.10 C 34.00 64.29 33.22 64.66 32.83 64.85 C 32.15 67.35 31.45 69.85 30.59 72.30 C 29.98 70.95 29.46 69.53 29.50 68.03 C 29.36 58.38 28.79 48.29 33.03 39.32 C 34.47 39.81 35.98 40.04 37.42 40.53 C 37.97 39.76 38.53 39.00 39.11 38.25 C 42.56 33.29 48.40 31.07 52.87 27.24 Z"
     id="path3171" />
  <path
     fill="#86a31a"
     d=" M 78.70 28.41 C 80.14 28.10 81.59 27.79 83.04 27.47 C 82.29 29.83 81.65 32.42 79.40 33.82 C 78.87 33.35 77.81 32.39 77.28 31.91 L 77.30 31.60 C 77.59 30.56 77.90 29.53 78.26 28.51 L 78.70 28.41 Z"
     id="path3173" />
  <path
     fill="#cd575e"
     d=" M 72.41 28.68 C 72.44 28.69 72.51 28.73 72.54 28.74 C 72.51 28.73 72.44 28.69 72.41 28.68 Z"
     id="path3175" />
  <path
     fill="#cd575e"
     d=" M 74.22 29.67 C 74.26 29.69 74.32 29.73 74.36 29.75 C 74.32 29.73 74.26 29.69 74.22 29.67 Z"
     id="path3177" />
  <path
     fill="#bf0a08"
     d=" M 85.98 33.41 C 87.29 32.70 88.49 31.77 89.11 30.38 L 88.45 32.29 C 92.45 32.10 96.67 31.79 100.39 33.61 C 100.42 33.63 100.49 33.66 100.52 33.67 L 102.34 34.56 C 102.37 34.58 102.43 34.61 102.46 34.63 L 103.71 35.42 C 105.87 36.77 107.77 38.50 109.29 40.55 C 108.28 40.54 107.27 40.53 106.26 40.51 C 105.35 41.76 104.43 42.99 103.49 44.22 C 103.70 43.05 104.12 40.70 104.33 39.53 C 103.34 39.97 102.35 40.42 101.38 40.90 L 102.90 43.10 C 102.77 43.74 102.52 45.03 102.40 45.67 C 95.29 45.58 88.21 46.56 81.11 46.15 C 81.00 44.78 80.91 43.41 80.84 42.04 C 81.78 39.14 84.69 37.68 86.97 35.95 C 86.72 35.32 86.23 34.04 85.98 33.41 Z"
     id="path3179" />
  <path
     fill="#bc2e27"
     d=" M 33.04 31.91 C 33.70 34.42 34.67 36.82 35.96 39.06 C 37.01 38.79 38.06 38.52 39.11 38.25 C 38.53 39.00 37.97 39.76 37.42 40.53 C 35.98 40.04 34.47 39.81 33.03 39.32 C 28.79 48.29 29.36 58.38 29.50 68.03 C 29.46 69.53 29.98 70.95 30.59 72.30 C 31.45 69.85 32.15 67.35 32.83 64.85 C 33.22 64.66 34.00 64.29 34.39 64.10 C 35.72 75.24 35.31 86.48 36.72 97.62 C 36.72 106.90 40.38 115.64 44.10 123.96 C 48.54 130.55 57.44 130.39 64.39 132.12 C 59.17 134.82 53.09 133.47 47.46 133.86 C 43.33 131.10 40.35 127.02 37.26 123.21 C 37.97 120.98 38.72 118.63 37.97 116.30 C 36.17 109.31 35.08 102.17 34.63 94.97 C 34.54 92.36 34.05 89.78 33.02 87.38 C 30.73 90.43 31.59 94.45 31.38 98.00 C 31.07 104.28 32.89 110.35 33.32 116.57 C 30.74 111.38 29.09 105.55 29.26 99.74 C 29.47 98.71 29.22 97.79 28.51 96.98 C 27.91 95.31 28.03 93.50 28.22 91.77 C 28.43 90.73 28.21 89.78 27.57 88.92 C 26.58 86.41 27.20 83.60 27.05 80.96 C 26.64 64.55 24.98 46.92 33.04 31.91 Z"
     id="path3181" />
  <path
     fill="#9f0101"
     d=" M 77.28 31.91 C 77.81 32.39 78.87 33.35 79.40 33.82 C 81.59 33.63 83.79 33.54 85.98 33.41 C 86.23 34.04 86.72 35.32 86.97 35.95 C 84.69 37.68 81.78 39.14 80.84 42.04 C 80.64 43.37 80.47 44.71 80.33 46.05 C 79.68 44.70 79.11 43.30 78.48 41.94 C 77.25 43.19 75.68 44.30 75.22 46.09 C 71.14 61.00 70.66 76.55 68.49 91.78 C 68.16 94.57 69.22 99.07 72.95 98.09 C 75.54 96.72 76.30 93.51 76.65 90.83 C 76.98 76.88 81.94 63.61 83.67 49.84 C 83.93 48.56 82.57 47.77 81.95 46.85 C 83.63 47.07 85.32 47.25 87.00 47.43 C 86.59 58.14 83.87 68.62 82.36 79.21 C 81.53 86.06 83.01 93.26 80.11 99.76 C 79.28 99.31 78.44 98.87 77.61 98.42 C 75.88 100.25 74.91 103.58 72.15 103.90 C 69.95 102.57 68.12 100.74 66.22 99.05 C 65.57 99.36 64.29 99.98 63.65 100.29 C 63.19 100.05 62.25 99.56 61.78 99.31 C 60.49 92.74 62.72 86.28 63.88 79.87 C 65.68 71.56 66.68 63.10 68.80 54.86 C 69.87 50.73 70.18 46.29 72.61 42.65 C 74.14 42.28 76.21 42.69 77.27 41.25 C 78.40 38.99 77.28 36.49 77.14 34.14 C 77.18 33.58 77.25 32.47 77.28 31.91 Z"
     id="path3183" />
  <path
     fill="#ce4142"
     d=" M 47.86 37.09 C 48.41 32.74 52.75 29.79 56.93 29.68 C 61.52 29.24 65.51 32.20 70.02 32.41 C 72.50 32.47 74.87 33.18 77.14 34.14 C 77.28 36.49 78.40 38.99 77.27 41.25 C 76.21 42.69 74.14 42.28 72.61 42.65 C 70.97 40.86 69.40 38.99 67.52 37.44 C 65.94 36.64 64.87 38.29 63.95 39.27 C 60.22 44.85 49.92 43.53 47.86 37.09 Z"
     id="path3185" />
  <path
     fill="#cd575e"
     d=" M 100.39 33.61 C 100.42 33.63 100.49 33.66 100.52 33.67 C 100.49 33.66 100.42 33.63 100.39 33.61 Z"
     id="path3187" />
  <path
     fill="#e09ba0"
     d=" M 70.54 34.45 C 74.07 33.65 77.07 36.89 76.28 40.36 C 73.03 41.31 68.59 37.83 70.54 34.45 Z"
     id="path3189" />
  <path
     fill="#cd575e"
     d=" M 102.34 34.56 C 102.37 34.58 102.43 34.61 102.46 34.63 C 102.43 34.61 102.37 34.58 102.34 34.56 Z"
     id="path3191" />
  <path
     fill="#bd332b"
     d=" M 103.71 35.42 C 106.40 36.32 109.16 34.78 111.85 35.60 C 115.04 36.30 117.75 38.69 119.05 41.66 C 121.11 47.59 121.09 54.03 120.23 60.19 C 118.77 72.73 116.07 85.08 113.53 97.43 C 113.52 97.47 113.50 97.55 113.50 97.59 C 112.54 101.86 111.40 106.09 110.43 110.36 C 110.43 110.40 110.41 110.47 110.40 110.51 C 109.45 114.12 108.51 117.74 107.43 121.33 C 107.42 121.36 107.40 121.43 107.39 121.46 C 105.81 126.27 103.44 130.87 99.85 134.48 L 99.59 134.45 C 91.82 133.34 83.65 135.99 76.17 132.77 C 76.17 132.30 76.17 131.35 76.17 130.87 C 79.77 126.46 85.93 126.71 90.80 124.58 C 94.68 122.88 99.68 122.04 101.76 117.88 C 104.06 114.06 103.18 109.43 104.02 105.24 C 104.67 101.02 110.65 100.68 111.08 96.25 C 112.77 88.40 115.60 80.73 115.95 72.65 C 117.42 64.17 119.21 55.58 118.42 46.93 C 118.54 43.70 114.57 44.04 112.46 43.30 C 113.96 48.15 114.69 53.20 114.33 58.28 C 114.02 52.07 112.66 45.85 109.29 40.55 C 107.77 38.50 105.87 36.77 103.71 35.42 Z"
     id="path3193" />
  <path
     fill="#9e0301"
     d=" M 101.38 40.90 C 102.35 40.42 103.34 39.97 104.33 39.53 C 104.12 40.70 103.70 43.05 103.49 44.22 C 104.43 42.99 105.35 41.76 106.26 40.51 C 107.27 40.53 108.28 40.54 109.29 40.55 C 112.66 45.85 114.02 52.07 114.33 58.28 C 114.33 59.35 114.33 60.43 114.31 61.50 L 112.99 62.66 C 112.07 57.37 111.81 51.56 107.90 47.45 C 104.98 53.16 105.62 59.75 104.98 65.94 C 104.27 73.51 104.16 81.16 102.75 88.64 C 102.38 90.43 103.33 92.11 103.82 93.77 C 103.33 94.58 102.86 95.41 102.43 96.25 C 102.06 97.00 101.68 97.74 101.31 98.49 C 99.25 96.27 96.83 94.29 95.34 91.61 C 93.88 88.16 95.22 84.39 95.77 80.89 C 98.21 69.21 97.76 56.82 102.40 45.67 C 102.52 45.03 102.77 43.74 102.90 43.10 L 101.38 40.90 Z"
     id="path3195" />
  <path
     fill="#870101"
     d=" M 75.22 46.09 C 75.68 44.30 77.25 43.19 78.48 41.94 C 79.11 43.30 79.68 44.70 80.33 46.05 C 80.73 46.25 81.54 46.65 81.95 46.85 C 82.57 47.77 83.93 48.56 83.67 49.84 C 81.94 63.61 76.98 76.88 76.65 90.83 C 76.30 93.51 75.54 96.72 72.95 98.09 C 69.22 99.07 68.16 94.57 68.49 91.78 C 70.66 76.55 71.14 61.00 75.22 46.09 Z"
     id="path3197" />
  <path
     fill="#b20101"
     d=" M 80.84 42.04 C 80.91 43.41 81.00 44.78 81.11 46.15 C 88.21 46.56 95.29 45.58 102.40 45.67 C 97.76 56.82 98.21 69.21 95.77 80.89 C 95.22 84.39 93.88 88.16 95.34 91.61 C 96.83 94.29 99.25 96.27 101.31 98.49 C 100.52 99.53 99.53 100.55 98.08 100.28 C 92.09 100.00 86.09 98.28 80.11 99.76 C 83.01 93.26 81.53 86.06 82.36 79.21 C 83.87 68.62 86.59 58.14 87.00 47.43 C 85.32 47.25 83.63 47.07 81.95 46.85 C 81.54 46.65 80.73 46.25 80.33 46.05 C 80.47 44.71 80.64 43.37 80.84 42.04 Z"
     id="path3199" />
  <path
     fill="#820403"
     d=" M 112.46 43.30 C 114.57 44.04 118.54 43.70 118.42 46.93 C 119.21 55.58 117.42 64.17 115.95 72.65 C 114.96 75.41 114.04 78.19 113.28 81.03 C 113.23 74.49 114.89 68.05 114.31 61.50 C 114.33 60.43 114.33 59.35 114.33 58.28 C 114.69 53.20 113.96 48.15 112.46 43.30 Z"
     id="path3201" />
  <path
     fill="#d46165"
     d=" M 39.72 50.59 C 40.38 48.37 41.45 44.64 44.53 45.64 C 49.33 50.61 47.03 57.93 46.56 64.01 C 46.22 72.49 45.94 81.07 47.16 89.50 C 46.75 94.01 50.21 99.60 46.39 103.27 C 45.28 104.70 43.35 104.38 41.77 104.64 C 40.64 99.96 41.15 94.96 39.24 90.49 C 37.70 86.02 39.63 81.49 39.53 76.98 C 38.36 68.25 38.16 59.28 39.72 50.59 Z"
     id="path3203" />
  <path
     fill="#8e0904"
     d=" M 104.98 65.94 C 105.62 59.75 104.98 53.16 107.90 47.45 C 111.81 51.56 112.07 57.37 112.99 62.66 C 112.74 68.47 111.10 74.06 109.57 79.62 C 108.14 84.51 107.35 89.84 103.82 93.77 C 103.33 92.11 102.38 90.43 102.75 88.64 C 104.16 81.16 104.27 73.51 104.98 65.94 Z"
     id="path3205" />
  <path
     fill="#9b1c16"
     d=" M 112.99 62.66 L 114.31 61.50 C 114.89 68.05 113.23 74.49 113.28 81.03 C 114.04 78.19 114.96 75.41 115.95 72.65 C 115.60 80.73 112.77 88.40 111.08 96.25 C 108.44 98.05 104.59 99.65 102.43 96.25 C 102.86 95.41 103.33 94.58 103.82 93.77 C 107.35 89.84 108.14 84.51 109.57 79.62 C 111.10 74.06 112.74 68.47 112.99 62.66 Z"
     id="path3207" />
  <path
     fill="#cd575e"
     d=" M 31.38 98.00 C 31.59 94.45 30.73 90.43 33.02 87.38 C 34.05 89.78 34.54 92.36 34.63 94.97 C 35.08 102.17 36.17 109.31 37.97 116.30 C 38.72 118.63 37.97 120.98 37.26 123.21 C 35.74 121.15 33.92 119.12 33.32 116.57 C 32.89 110.35 31.07 104.28 31.38 98.00 Z"
     id="path3209" />
  <path
     fill="#cd575e"
     d=" M 27.57 88.92 C 28.21 89.78 28.43 90.73 28.22 91.77 C 26.60 91.30 26.39 90.35 27.57 88.92 Z"
     id="path3211" />
  <path
     fill="#b51710"
     d=" M 47.16 89.50 C 48.66 92.29 49.05 95.57 50.65 98.28 C 54.01 100.24 58.09 100.05 61.78 99.31 C 62.25 99.56 63.19 100.05 63.65 100.29 C 64.40 104.08 65.42 107.88 65.36 111.77 C 65.48 118.14 66.14 124.50 66.83 130.83 C 66.03 131.27 65.21 131.71 64.39 132.12 C 57.44 130.39 48.54 130.55 44.10 123.96 C 40.38 115.64 36.72 106.90 36.72 97.62 C 37.38 99.06 38.10 100.47 38.81 101.89 C 38.82 98.09 39.03 94.28 39.24 90.49 C 41.15 94.96 40.64 99.96 41.77 104.64 C 43.35 104.38 45.28 104.70 46.39 103.27 C 50.21 99.60 46.75 94.01 47.16 89.50 Z"
     id="path3213" />
  <path
     fill="#b5150f"
     d=" M 101.31 98.49 C 101.68 97.74 102.06 97.00 102.43 96.25 C 104.59 99.65 108.44 98.05 111.08 96.25 C 110.65 100.68 104.67 101.02 104.02 105.24 C 103.18 109.43 104.06 114.06 101.76 117.88 C 99.68 122.04 94.68 122.88 90.80 124.58 C 85.93 126.71 79.77 126.46 76.17 130.87 C 76.21 129.45 76.27 128.02 76.36 126.60 C 76.46 124.81 76.50 123.01 76.36 121.22 C 77.11 121.25 78.61 121.32 79.36 121.35 C 80.34 117.55 81.64 111.94 77.46 109.62 C 77.92 108.61 78.37 107.60 78.79 106.58 C 79.41 104.35 79.75 102.05 80.11 99.76 C 86.09 98.28 92.09 100.00 98.08 100.28 C 99.53 100.55 100.52 99.53 101.31 98.49 Z"
     id="path3215" />
  <path
     fill="#cd575e"
     d=" M 28.51 96.98 C 29.22 97.79 29.47 98.71 29.26 99.74 C 27.64 99.36 27.39 98.44 28.51 96.98 Z"
     id="path3217" />
  <path
     fill="#cd575e"
     d=" M 113.50 97.59 C 113.50 97.55 113.52 97.47 113.53 97.43 C 113.52 97.47 113.50 97.55 113.50 97.59 Z"
     id="path3219" />
  <path
     fill="#9f0e0a"
     d=" M 72.15 103.90 C 74.91 103.58 75.88 100.25 77.61 98.42 C 78.44 98.87 79.28 99.31 80.11 99.76 C 79.75 102.05 79.41 104.35 78.79 106.58 C 74.17 108.42 73.99 113.68 72.85 117.81 C 70.14 116.08 67.64 114.03 65.36 111.77 C 65.42 107.88 64.40 104.08 63.65 100.29 C 64.29 99.98 65.57 99.36 66.22 99.05 C 68.12 100.74 69.95 102.57 72.15 103.90 Z"
     id="path3221" />
  <path
     fill="#a41a12"
     d=" M 72.85 117.81 C 73.99 113.68 74.17 108.42 78.79 106.58 C 78.37 107.60 77.92 108.61 77.46 109.62 C 75.35 113.16 75.86 117.33 76.36 121.22 C 76.50 123.01 76.46 124.81 76.36 126.60 C 72.91 127.34 69.84 129.07 66.83 130.83 C 66.14 124.50 65.48 118.14 65.36 111.77 C 67.64 114.03 70.14 116.08 72.85 117.81 Z"
     id="path3223" />
  <path
     fill="#ba2c25"
     d=" M 77.46 109.62 C 81.64 111.94 80.34 117.55 79.36 121.35 C 78.61 121.32 77.11 121.25 76.36 121.22 C 75.86 117.33 75.35 113.16 77.46 109.62 Z"
     id="path3225" />
  <path
     fill="#cd575e"
     d=" M 110.40 110.51 C 110.41 110.47 110.43 110.40 110.43 110.36 C 110.43 110.40 110.41 110.47 110.40 110.51 Z"
     id="path3227" />
  <path
     fill="#cd575e"
     d=" M 107.39 121.46 C 107.40 121.43 107.42 121.36 107.43 121.33 C 107.42 121.36 107.40 121.43 107.39 121.46 Z"
     id="path3229" />
  <path
     fill="#9c231e"
     d=" M 66.83 130.83 C 69.84 129.07 72.91 127.34 76.36 126.60 C 76.27 128.02 76.21 129.45 76.17 130.87 C 76.17 131.35 76.17 132.30 76.17 132.77 C 83.65 135.99 91.82 133.34 99.59 134.45 C 97.04 137.80 93.30 140.41 88.97 140.55 C 82.62 140.91 76.19 140.65 69.93 139.48 C 65.08 140.65 60.13 140.49 55.26 139.49 C 51.83 139.18 49.49 136.34 47.46 133.86 C 53.09 133.47 59.17 134.82 64.39 132.12 C 65.21 131.71 66.03 131.27 66.83 130.83 Z"
     id="path3231" />
</svg>
